<svg width="48" height="48" viewBox="0 0 64 64" xmlns="http://www.w3.org/2000/svg">
  <defs>
    <linearGradient id="xui" gradientTransform="rotate(64)">
      <stop offset="0%" stop-color="#d642cd" />
      <stop offset="100%" stop-color="#8a05FF" />
    </linearGradient>
    <linearGradient id="x" gradientTransform="rotate(22)">
      <stop offset="0%" stop-color="#e8beed" />
      <stop offset="100%" stop-color="#e4cfe5" />
    </linearGradient>
    <clipPath id="squircle">
      <path d="M 0 32 C 0 4.16, 4.16 0, 32 0 S 64 4.16, 64 32, 59.84 64 32 64, 0 59.84, 0 32 Z" />
    </clipPath>
  </defs>

  <!-- Background -->
  <path d="M 0 0 L 64 0 64 64 0 64 Z" fill="url(#xui)" clip-path="url(#squircle)" />

  <!-- Foreground -->
  <path d="M 5 0  L 15 22 25 0  Z" fill="url(#x)" clip-path="url(#squircle)" />
  <path d="M 5 64 L 15 42 25 64 Z" fill="url(#x)" clip-path="url(#squircle)" />
  <path d="M 0 10 L 10 32 0 54 Z" fill="url(#x)" clip-path="url(#squircle)" />

  <path d="M 25 24 L 25 35 Q 25 45.5 32 45.5 Q 39 45.5 39 35 L 39 24" stroke="white" stroke-width="5" fill="none" clip-path="url(#squircle)" />
  <path d="M 49 24 L 49 47" stroke="white" stroke-width="5" fill="none" clip-path="url(#squircle)" />
  <circle cx="49" cy="18" r="3" fill="white" />

</svg>
