<svg width="1200" height="630" viewBox="0 25 400 350" preserveAspectRatio="xMidYMid meet" xmlns="http://www.w3.org/2000/svg">

    <defs>
        <linearGradient id="xui" gradientTransform="rotate(64)">
            <stop offset="0%" stop-color="#d642cd" />
            <stop offset="100%" stop-color="#8a05FF" />
        </linearGradient>
        <linearGradient id="x" gradientTransform="rotate(22)">
            <stop offset="0%" stop-color="#e8beed" />
            <stop offset="100%" stop-color="#e4cfe5" />
        </linearGradient>
        <clipPath id="clip">
            <rect width="64" height="64" rx="15" />
        </clipPath>
    </defs>

    <g transform="translate(10,180)">
        <rect width="64" height="96" rx="12" fill="#333333" />
        <rect class="screen" x="2" y="2" width="60" height="92" rx="10" fill="#FFF" />
        <rect class="pinchhole" x="24" y="4" width="16" height="6" rx="3" fill="black" />
        <rect x="20" y="90" width="24" height="3" rx="1.5" fill="#333333" />

        <g transform="translate(0, 0)">
            <rect x="10" y="20" width="12" height="4" rx="2" fill="#d642cd" />
            <rect x="10" y="40" width="16" height="4" rx="2" fill="#999" />
            <rect x="10" y="46" width="32" height="4" rx="2" fill="#999" />
            <rect x="10" y="52" width="36" height="4" rx="2" fill="#999" />
            <rect x="10" y="58" width="32" height="4" rx="2" fill="#999" />
            <rect x="10" y="72" width="12" height="4" rx="2" fill="#d642cd" />
        </g>

    </g>
    <g transform="translate(60,200)">
        <rect width="64" height="96" rx="6" fill="#333333" />
        <rect class="screen" x="2" y="2" width="60" height="82" rx="4" fill="white" />
        <rect class="pinchhole" x="29" y="4" width="6" height="6" rx="3" />

        <path class="screen" transform="translate(13.5,87)" d="M0.5 3 L 6 0.25 6 5.75 Z" />
        <circle class="screen" transform="translate(32,90)" r="2.5" />
        <rect class="screen" transform="translate(43.5,87.5)" width="5" height="5" />

        <g transform="translate(0, 0)">
            <rect x="10" y="20" width="12" height="4" rx="2" fill="#d642cd" />
            <rect x="10" y="40" width="16" height="4" rx="2" fill="#999" />
            <rect x="10" y="46" width="32" height="4" rx="2" fill="#999" />
            <rect x="10" y="52" width="36" height="4" rx="2" fill="#999" />
            <rect x="10" y="58" width="32" height="4" rx="2" fill="#999" />
            <rect x="10" y="72" width="12" height="4" rx="2" fill="#d642cd" />
        </g>
    </g>

    <g transform="translate(110,210)">
        <rect width="128" height="94" rx="6" fill="#333333" />
        <rect class="screen" x="6" y="2" width="116" height="90" rx="4" fill="white" />

        <g transform="translate(30, 8)">
            <rect x="10" y="20" width="12" height="4" rx="2" fill="#d642cd" />
            <rect x="10" y="40" width="16" height="4" rx="2" fill="#999" />
            <rect x="10" y="46" width="32" height="4" rx="2" fill="#999" />
            <rect x="10" y="52" width="36" height="4" rx="2" fill="#999" />
            <rect x="10" y="58" width="32" height="4" rx="2" fill="#999" />
            <rect x="10" y="72" width="12" height="4" rx="2" fill="#d642cd" />
        </g>
        <path d="M 32 2 L 32 92" stroke-width="1" fill="none" class="up-separator" />
    </g>

    <g transform="translate(185,200)">
        <rect x="8" width="108" height="94" rx="6" fill="#333333" />
        <rect class="screen" x="10" y="4" width="104" height="88" rx="4" fill="white" />

        <path d="M 10 96 L 2.5 105 123 105 114 96 Z" fill="#333" stroke="#333" stroke-width="5" stroke-linejoin="round" />
        <path d="M 10 96 L 2.5 105 123 105 114 96 Z" class="keyboard" stroke-width="1" stroke-linejoin="round" />

        <g transform="translate(-25, 0)">
            <g transform="translate(35, 4)">
                <rect x="10" y="20" width="12" height="4" rx="2" fill="#d642cd" />
                <rect x="10" y="40" width="16" height="4" rx="2" fill="#999" />
                <rect x="10" y="46" width="32" height="4" rx="2" fill="#999" />
                <rect x="10" y="52" width="36" height="4" rx="2" fill="#999" />
                <rect x="10" y="58" width="32" height="4" rx="2" fill="#999" />
                <rect x="10" y="72" width="12" height="4" rx="2" fill="#d642cd" />
            </g>

            <rect rx="2" x="40" y="10" width="64" height="74" fill="none" stroke-width="1" class="up-separator" />
            <path transform="translate(96, 13)" d="M0 0 L5 5 M0 5 L 5 0" stroke-width="1" class="up-separator" />
        </g>
    </g>

    <g transform="translate(270,190)">
        <rect x="8" width="118" height="94" rx="6" fill="#333333" />
        <rect class="screen" x="10" y="2" width="114" height="84" rx="4" fill="white" />

        <path transform="translate(10, 40)" d="M 50 50 L 50 65 45 70 65 70 60 65 60 50 Z" fill="#333" stroke="#333" stroke-width="5" stroke-linejoin="round" />

        <g transform="translate(-10, -5)">
            <g transform="translate(35, 4)">
                <rect x="10" y="20" width="12" height="4" rx="2" fill="#d642cd" />
                <rect x="10" y="40" width="16" height="4" rx="2" fill="#999" />
                <rect x="10" y="46" width="32" height="4" rx="2" fill="#999" />
                <rect x="10" y="52" width="36" height="4" rx="2" fill="#999" />
                <rect x="10" y="58" width="32" height="4" rx="2" fill="#999" />
                <rect x="10" y="72" width="12" height="4" rx="2" fill="#d642cd" />
            </g>

            <rect rx="2" x="42" y="10" width="64" height="74" fill="none" stroke-width="1" class="up-separator" />
            <path transform="translate(46, 14)" d="M0 0 L5 5 M0 5 L 5 0" stroke-width="1" class="up-separator" />
        </g>
    </g>

    <g transform="translate(130, 45) scale(2.2, 2.2)" clip-path="url(#clip)">
        <path d="M 0 0 L 64 0 64 64 0 64 Z" fill="url(#xui)" />

        <path d="M 5 0  L 15 22 25 0  Z" fill="url(#x)" />
        <path d="M 5 64 L 15 42 25 64 Z" fill="url(#x)" />
        <path d="M 0 10 L 10 32 0 54 Z" fill="url(#x)" />

        <path d="M 25 24 L 25 35 Q 25 45.5 32 45.5 Q 39 45.5 39 35 L 39 24" stroke="white" stroke-width="5" fill="none" clip-path="url(#squircle)" />
        <path d="M 49 24 L 49 47" stroke="white" stroke-width="5" fill="none" clip-path="url(#squircle)" />
        <circle cx="49" cy="18" r="3" fill="white" />
    </g>

</svg>