<?xml version="1.0" encoding="UTF-8"?>
<svg xmlns="http://www.w3.org/2000/svg" width="380" height="120" viewBox="0 0 380 120">
  <!-- Path2D -->
  <g transform="translate(0,0)">
    <g transform="translate(0,0)">
      <path d="M 60 20 C 100 20 100 50 60 50 C 0 50 0 100 60 100 C 120 100 120 50 60 50 C 20 50 20 20 60 20 Z M 60 0 C 120 0 120 60 60 60 C 20 60 20 80 60 80 C 100 80 100 60 60 60 C 0 60 0 0 60 0 Z " fill="none" stroke="#444" stroke-width="1.5" />
    </g>
    <text x="60" y="115" font-family="sans-serif" font-size="10" fill="#333" text-anchor="middle">Path2D</text>
  </g>
  <!-- Contours -->
  <g transform="translate(130,0)">
    <g transform="translate(0,0)">
      <polyline points="60,20 73.125,21.2890625 82.5,24.6875 88.125,29.4921875 90,35 88.125,40.5078125 82.5,45.3125 73.125,48.7109375 60,50 40.3125,52.1484375 26.25,57.8125 17.8125,65.8203125 15,75 17.8125,84.1796875 26.25,92.1875 40.3125,97.8515625 60,100 79.6875,97.8515625 93.75,92.1875 102.1875,84.1796875 105,75 102.1875,65.8203125 93.75,57.8125 79.6875,52.1484375 60,50 46.875,48.7109375 37.5,45.3125 31.875,40.5078125 30,35 31.875,29.4921875 37.5,24.6875 46.875,21.2890625 60,20" fill="none" stroke="#3366cc" stroke-width="1" />
      <polyline points="60,0 79.6875,2.578125 93.75,9.375 102.1875,18.984375 105,30 102.1875,41.015625 93.75,50.625 79.6875,57.421875 60,60 46.875,60.859375 37.5,63.125 31.875,66.328125 30,70 31.875,73.671875 37.5,76.875 46.875,79.140625 60,80 73.125,79.140625 82.5,76.875 88.125,73.671875 90,70 88.125,66.328125 82.5,63.125 73.125,60.859375 60,60 40.3125,57.421875 26.25,50.625 17.8125,41.015625 15,30 17.8125,18.984375 26.25,9.375 40.3125,2.578125 60,0" fill="none" stroke="#3366cc" stroke-width="1" />
    </g>
    <text x="60" y="115" font-family="sans-serif" font-size="10" fill="#333" text-anchor="middle">Contours</text>
  </g>
  <!-- Triangles -->
  <g transform="translate(260,0)">
    <g transform="translate(0,0)">
      <polygon points="60,0 79.6875,2.578125 60,0" fill="#f08080" stroke="#990000" stroke-width="1" />
      <polygon points="60,0 79.6875,2.578125 40.3125,2.578125" fill="#f08080" stroke="#990000" stroke-width="1" />
      <polygon points="40.3125,2.578125 26.25,9.375 79.6875,2.578125" fill="#f08080" stroke="#990000" stroke-width="1" />
      <polygon points="79.6875,2.578125 26.25,9.375 93.75,9.375" fill="#f08080" stroke="#990000" stroke-width="1" />
      <polygon points="26.25,9.375 17.8125,18.984375 93.75,9.375" fill="#f08080" stroke="#990000" stroke-width="1" />
      <polygon points="93.75,9.375 17.8125,18.984375 102.1875,18.984375" fill="#f08080" stroke="#990000" stroke-width="1" />
      <polygon points="17.8125,18.984375 17.5531914893617,20 102.1875,18.984375" fill="#f08080" stroke="#990000" stroke-width="1" />
      <polygon points="102.1875,18.984375 17.5531914893617,20 102.44680851063829,20" fill="#f08080" stroke="#990000" stroke-width="1" />
      <polygon points="17.5531914893617,20 17.22406914893617,21.2890625 60,20" fill="#f08080" stroke="#990000" stroke-width="1" />
      <polygon points="60,20 17.22406914893617,21.2890625 73.125,21.2890625" fill="#f08080" stroke="#990000" stroke-width="1" />
      <polygon points="60,20 46.875,21.2890625 102.44680851063829,20" fill="#f08080" stroke="#990000" stroke-width="1" />
      <polygon points="102.44680851063829,20 46.875,21.2890625 102.77593085106383,21.2890625" fill="#f08080" stroke="#990000" stroke-width="1" />
      <polygon points="17.22406914893617,21.2890625 16.356382978723403,24.6875 46.875,21.2890625" fill="#f08080" stroke="#990000" stroke-width="1" />
      <polygon points="46.875,21.2890625 16.356382978723403,24.6875 37.5,24.6875" fill="#f08080" stroke="#990000" stroke-width="1" />
      <polygon points="73.125,21.2890625 82.5,24.6875 102.77593085106383,21.2890625" fill="#f08080" stroke="#990000" stroke-width="1" />
      <polygon points="102.77593085106383,21.2890625 82.5,24.6875 103.6436170212766,24.6875" fill="#f08080" stroke="#990000" stroke-width="1" />
      <polygon points="16.356382978723403,24.6875 15.12965425531915,29.4921875 37.5,24.6875" fill="#f08080" stroke="#990000" stroke-width="1" />
      <polygon points="37.5,24.6875 15.12965425531915,29.4921875 31.875,29.4921875" fill="#f08080" stroke="#990000" stroke-width="1" />
      <polygon points="82.5,24.6875 88.125,29.4921875 103.6436170212766,24.6875" fill="#f08080" stroke="#990000" stroke-width="1" />
      <polygon points="103.6436170212766,24.6875 88.125,29.4921875 104.87034574468085,29.4921875" fill="#f08080" stroke="#990000" stroke-width="1" />
      <polygon points="15.12965425531915,29.4921875 15,30 31.875,29.4921875" fill="#f08080" stroke="#990000" stroke-width="1" />
      <polygon points="31.875,29.4921875 15,30 31.70212765957447,30" fill="#f08080" stroke="#990000" stroke-width="1" />
      <polygon points="88.125,29.4921875 88.29787234042553,30 104.87034574468085,29.4921875" fill="#f08080" stroke="#990000" stroke-width="1" />
      <polygon points="104.87034574468085,29.4921875 88.29787234042553,30 105,30" fill="#f08080" stroke="#990000" stroke-width="1" />
      <polygon points="15,30 16.27659574468085,35 31.70212765957447,30" fill="#f08080" stroke="#990000" stroke-width="1" />
      <polygon points="31.70212765957447,30 16.27659574468085,35 30,35" fill="#f08080" stroke="#990000" stroke-width="1" />
      <polygon points="88.29787234042553,30 90,35 105,30" fill="#f08080" stroke="#990000" stroke-width="1" />
      <polygon points="105,30 90,35 103.72340425531915,35" fill="#f08080" stroke="#990000" stroke-width="1" />
      <polygon points="16.27659574468085,35 17.68284574468085,40.5078125 30,35" fill="#f08080" stroke="#990000" stroke-width="1" />
      <polygon points="30,35 17.68284574468085,40.5078125 31.875,40.5078125" fill="#f08080" stroke="#990000" stroke-width="1" />
      <polygon points="90,35 88.125,40.5078125 103.72340425531915,35" fill="#f08080" stroke="#990000" stroke-width="1" />
      <polygon points="103.72340425531915,35 88.125,40.5078125 102.31715425531915,40.5078125" fill="#f08080" stroke="#990000" stroke-width="1" />
      <polygon points="17.68284574468085,40.5078125 17.8125,41.015625 31.875,40.5078125" fill="#f08080" stroke="#990000" stroke-width="1" />
      <polygon points="31.875,40.5078125 17.8125,41.015625 32.46951219512195,41.015625" fill="#f08080" stroke="#990000" stroke-width="1" />
      <polygon points="88.125,40.5078125 87.53048780487805,41.015625 102.31715425531915,40.5078125" fill="#f08080" stroke="#990000" stroke-width="1" />
      <polygon points="102.31715425531915,40.5078125 87.53048780487805,41.015625 102.1875,41.015625" fill="#f08080" stroke="#990000" stroke-width="1" />
      <polygon points="17.8125,41.015625 21.585365853658537,45.3125 32.46951219512195,41.015625" fill="#f08080" stroke="#990000" stroke-width="1" />
      <polygon points="32.46951219512195,41.015625 21.585365853658537,45.3125 37.5,45.3125" fill="#f08080" stroke="#990000" stroke-width="1" />
      <polygon points="87.53048780487805,41.015625 82.5,45.3125 102.1875,41.015625" fill="#f08080" stroke="#990000" stroke-width="1" />
      <polygon points="102.1875,41.015625 82.5,45.3125 98.41463414634147,45.3125" fill="#f08080" stroke="#990000" stroke-width="1" />
      <polygon points="21.585365853658537,45.3125 24.569359756097562,48.7109375 37.5,45.3125" fill="#f08080" stroke="#990000" stroke-width="1" />
      <polygon points="37.5,45.3125 24.569359756097562,48.7109375 46.875,48.7109375" fill="#f08080" stroke="#990000" stroke-width="1" />
      <polygon points="82.5,45.3125 73.125,48.7109375 98.41463414634147,45.3125" fill="#f08080" stroke="#990000" stroke-width="1" />
      <polygon points="98.41463414634147,45.3125 73.125,48.7109375 95.43064024390245,48.7109375" fill="#f08080" stroke="#990000" stroke-width="1" />
      <polygon points="24.569359756097562,48.7109375 25.701219512195124,50 46.875,48.7109375" fill="#f08080" stroke="#990000" stroke-width="1" />
      <polygon points="46.875,48.7109375 25.701219512195124,50 60,50" fill="#f08080" stroke="#990000" stroke-width="1" />
      <polygon points="73.125,48.7109375 60,50 95.43064024390245,48.7109375" fill="#f08080" stroke="#990000" stroke-width="1" />
      <polygon points="95.43064024390245,48.7109375 60,50 94.29878048780488,50" fill="#f08080" stroke="#990000" stroke-width="1" />
      <polygon points="25.701219512195124,50 26.25,50.625 60,50" fill="#f08080" stroke="#990000" stroke-width="1" />
      <polygon points="60,50 26.25,50.625 54.27272727272727,50.625" fill="#f08080" stroke="#990000" stroke-width="1" />
      <polygon points="60,50 65.72727272727273,50.625 94.29878048780488,50" fill="#f08080" stroke="#990000" stroke-width="1" />
      <polygon points="94.29878048780488,50 65.72727272727273,50.625 93.75,50.625" fill="#f08080" stroke="#990000" stroke-width="1" />
      <polygon points="26.25,50.625 29.401939655172413,52.1484375 54.27272727272727,50.625" fill="#f08080" stroke="#990000" stroke-width="1" />
      <polygon points="54.27272727272727,50.625 29.401939655172413,52.1484375 40.3125,52.1484375" fill="#f08080" stroke="#990000" stroke-width="1" />
      <polygon points="65.72727272727273,50.625 79.6875,52.1484375 93.75,50.625" fill="#f08080" stroke="#990000" stroke-width="1" />
      <polygon points="93.75,50.625 79.6875,52.1484375 90.59806034482759,52.1484375" fill="#f08080" stroke="#990000" stroke-width="1" />
      <polygon points="29.401939655172413,52.1484375 34.36128526645768,54.54545454545455 40.3125,52.1484375" fill="#f08080" stroke="#990000" stroke-width="1" />
      <polygon points="40.3125,52.1484375 34.36128526645768,54.54545454545455 34.36128526645768,54.54545454545455" fill="#f08080" stroke="#990000" stroke-width="1" />
      <polygon points="79.6875,52.1484375 85.63871473354232,54.54545454545455 90.59806034482759,52.1484375" fill="#f08080" stroke="#990000" stroke-width="1" />
      <polygon points="90.59806034482759,52.1484375 85.63871473354232,54.54545454545455 85.63871473354232,54.54545454545455" fill="#f08080" stroke="#990000" stroke-width="1" />
      <polygon points="34.36128526645768,54.54545454545455 27.219827586206897,57.421875 34.36128526645768,54.54545454545455" fill="#f08080" stroke="#990000" stroke-width="1" />
      <polygon points="34.36128526645768,54.54545454545455 27.219827586206897,57.421875 40.3125,57.421875" fill="#f08080" stroke="#990000" stroke-width="1" />
      <polygon points="85.63871473354232,54.54545454545455 92.7801724137931,57.421875 85.63871473354232,54.54545454545455" fill="#f08080" stroke="#990000" stroke-width="1" />
      <polygon points="85.63871473354232,54.54545454545455 92.7801724137931,57.421875 79.6875,57.421875" fill="#f08080" stroke="#990000" stroke-width="1" />
      <polygon points="27.219827586206897,57.421875 26.25,57.8125 40.3125,57.421875" fill="#f08080" stroke="#990000" stroke-width="1" />
      <polygon points="40.3125,57.421875 26.25,57.8125 43.29545454545455,57.8125" fill="#f08080" stroke="#990000" stroke-width="1" />
      <polygon points="79.6875,57.421875 76.70454545454545,57.8125 92.7801724137931,57.421875" fill="#f08080" stroke="#990000" stroke-width="1" />
      <polygon points="92.7801724137931,57.421875 76.70454545454545,57.8125 93.75,57.8125" fill="#f08080" stroke="#990000" stroke-width="1" />
      <polygon points="26.25,57.8125 23.945121951219512,60 43.29545454545455,57.8125" fill="#f08080" stroke="#990000" stroke-width="1" />
      <polygon points="43.29545454545455,57.8125 23.945121951219512,60 60,60" fill="#f08080" stroke="#990000" stroke-width="1" />
      <polygon points="76.70454545454545,57.8125 60,60 93.75,57.8125" fill="#f08080" stroke="#990000" stroke-width="1" />
      <polygon points="93.75,57.8125 60,60 96.0548780487805,60" fill="#f08080" stroke="#990000" stroke-width="1" />
      <polygon points="23.945121951219512,60 23.039634146341463,60.859375 60,60" fill="#f08080" stroke="#990000" stroke-width="1" />
      <polygon points="60,60 23.039634146341463,60.859375 46.875,60.859375" fill="#f08080" stroke="#990000" stroke-width="1" />
      <polygon points="60,60 73.125,60.859375 96.0548780487805,60" fill="#f08080" stroke="#990000" stroke-width="1" />
      <polygon points="96.0548780487805,60 73.125,60.859375 96.96036585365853,60.859375" fill="#f08080" stroke="#990000" stroke-width="1" />
      <polygon points="23.039634146341463,60.859375 20.652439024390244,63.125 46.875,60.859375" fill="#f08080" stroke="#990000" stroke-width="1" />
      <polygon points="46.875,60.859375 20.652439024390244,63.125 37.5,63.125" fill="#f08080" stroke="#990000" stroke-width="1" />
      <polygon points="73.125,60.859375 82.5,63.125 96.96036585365853,60.859375" fill="#f08080" stroke="#990000" stroke-width="1" />
      <polygon points="96.96036585365853,60.859375 82.5,63.125 99.34756097560975,63.125" fill="#f08080" stroke="#990000" stroke-width="1" />
      <polygon points="20.652439024390244,63.125 17.8125,65.8203125 37.5,63.125" fill="#f08080" stroke="#990000" stroke-width="1" />
      <polygon points="37.5,63.125 17.8125,65.8203125 32.766768292682926,65.8203125" fill="#f08080" stroke="#990000" stroke-width="1" />
      <polygon points="82.5,63.125 87.23323170731707,65.8203125 99.34756097560975,63.125" fill="#f08080" stroke="#990000" stroke-width="1" />
      <polygon points="99.34756097560975,63.125 87.23323170731707,65.8203125 102.1875,65.8203125" fill="#f08080" stroke="#990000" stroke-width="1" />
      <polygon points="17.8125,65.8203125 17.65691489361702,66.328125 32.766768292682926,65.8203125" fill="#f08080" stroke="#990000" stroke-width="1" />
      <polygon points="32.766768292682926,65.8203125 17.65691489361702,66.328125 31.875,66.328125" fill="#f08080" stroke="#990000" stroke-width="1" />
      <polygon points="87.23323170731707,65.8203125 88.125,66.328125 102.1875,65.8203125" fill="#f08080" stroke="#990000" stroke-width="1" />
      <polygon points="102.1875,65.8203125 88.125,66.328125 102.34308510638297,66.328125" fill="#f08080" stroke="#990000" stroke-width="1" />
      <polygon points="17.65691489361702,66.328125 16.53191489361702,70 31.875,66.328125" fill="#f08080" stroke="#990000" stroke-width="1" />
      <polygon points="31.875,66.328125 16.53191489361702,70 30,70" fill="#f08080" stroke="#990000" stroke-width="1" />
      <polygon points="88.125,66.328125 90,70 102.34308510638297,66.328125" fill="#f08080" stroke="#990000" stroke-width="1" />
      <polygon points="102.34308510638297,66.328125 90,70 103.46808510638297,70" fill="#f08080" stroke="#990000" stroke-width="1" />
      <polygon points="16.53191489361702,70 15.40691489361702,73.671875 30,70" fill="#f08080" stroke="#990000" stroke-width="1" />
      <polygon points="30,70 15.40691489361702,73.671875 31.875,73.671875" fill="#f08080" stroke="#990000" stroke-width="1" />
      <polygon points="90,70 88.125,73.671875 103.46808510638297,70" fill="#f08080" stroke="#990000" stroke-width="1" />
      <polygon points="103.46808510638297,70 88.125,73.671875 104.59308510638297,73.671875" fill="#f08080" stroke="#990000" stroke-width="1" />
      <polygon points="15.40691489361702,73.671875 15,75 31.875,73.671875" fill="#f08080" stroke="#990000" stroke-width="1" />
      <polygon points="31.875,73.671875 15,75 34.207317073170735,75" fill="#f08080" stroke="#990000" stroke-width="1" />
      <polygon points="88.125,73.671875 85.79268292682927,75 104.59308510638297,73.671875" fill="#f08080" stroke="#990000" stroke-width="1" />
      <polygon points="104.59308510638297,73.671875 85.79268292682927,75 105,75" fill="#f08080" stroke="#990000" stroke-width="1" />
      <polygon points="15,75 15.574468085106384,76.875 34.207317073170735,75" fill="#f08080" stroke="#990000" stroke-width="1" />
      <polygon points="34.207317073170735,75 15.574468085106384,76.875 37.5,76.875" fill="#f08080" stroke="#990000" stroke-width="1" />
      <polygon points="85.79268292682927,75 82.5,76.875 105,75" fill="#f08080" stroke="#990000" stroke-width="1" />
      <polygon points="105,75 82.5,76.875 104.42553191489361,76.875" fill="#f08080" stroke="#990000" stroke-width="1" />
      <polygon points="15.574468085106384,76.875 16.268617021276597,79.140625 37.5,76.875" fill="#f08080" stroke="#990000" stroke-width="1" />
      <polygon points="37.5,76.875 16.268617021276597,79.140625 46.875,79.140625" fill="#f08080" stroke="#990000" stroke-width="1" />
      <polygon points="82.5,76.875 73.125,79.140625 104.42553191489361,76.875" fill="#f08080" stroke="#990000" stroke-width="1" />
      <polygon points="104.42553191489361,76.875 73.125,79.140625 103.7313829787234,79.140625" fill="#f08080" stroke="#990000" stroke-width="1" />
      <polygon points="16.268617021276597,79.140625 16.53191489361702,80 46.875,79.140625" fill="#f08080" stroke="#990000" stroke-width="1" />
      <polygon points="46.875,79.140625 16.53191489361702,80 60,80" fill="#f08080" stroke="#990000" stroke-width="1" />
      <polygon points="73.125,79.140625 60,80 103.7313829787234,79.140625" fill="#f08080" stroke="#990000" stroke-width="1" />
      <polygon points="103.7313829787234,79.140625 60,80 103.46808510638297,80" fill="#f08080" stroke="#990000" stroke-width="1" />
      <polygon points="16.53191489361702,80 17.8125,84.1796875 103.46808510638297,80" fill="#f08080" stroke="#990000" stroke-width="1" />
      <polygon points="103.46808510638297,80 17.8125,84.1796875 102.1875,84.1796875" fill="#f08080" stroke="#990000" stroke-width="1" />
      <polygon points="17.8125,84.1796875 26.25,92.1875 102.1875,84.1796875" fill="#f08080" stroke="#990000" stroke-width="1" />
      <polygon points="102.1875,84.1796875 26.25,92.1875 93.75,92.1875" fill="#f08080" stroke="#990000" stroke-width="1" />
      <polygon points="26.25,92.1875 40.3125,97.8515625 93.75,92.1875" fill="#f08080" stroke="#990000" stroke-width="1" />
      <polygon points="93.75,92.1875 40.3125,97.8515625 79.6875,97.8515625" fill="#f08080" stroke="#990000" stroke-width="1" />
      <polygon points="40.3125,97.8515625 60,100 79.6875,97.8515625" fill="#f08080" stroke="#990000" stroke-width="1" />
      <polygon points="79.6875,97.8515625 60,100 60,100" fill="#f08080" stroke="#990000" stroke-width="1" />
    </g>
    <text x="60" y="115" font-family="sans-serif" font-size="10" fill="#333" text-anchor="middle">Triangles</text>
  </g>
</svg>
