<?xml version="1.0" encoding="UTF-8"?>
<svg xmlns="http://www.w3.org/2000/svg" width="380" height="120" viewBox="0 0 380 120">
  <!-- Path2D -->
  <g transform="translate(0,0)">
    <g transform="translate(0,0)">
      <path d="M 60 20 C 100 0 100 60 60 80 C 20 60 20 0 60 20 Z " fill="none" stroke="#444" stroke-width="1.5" />
    </g>
    <text x="60" y="115" font-family="sans-serif" font-size="10" fill="#333" text-anchor="middle">Path2D</text>
  </g>
  <!-- Contours -->
  <g transform="translate(130,0)">
    <g transform="translate(0,0)">
      <polyline points="60,20 63.6328125,18.355712890625 67.03125,17.158203125 73.125,16.015625 78.28125,16.396484375 82.5,18.125 85.78125,21.025390625 88.125,24.921875 89.53125,29.638671875 90,35 89.53125,40.830078125 88.125,46.953125 85.78125,53.193359375 82.5,59.375 78.28125,65.322265625 73.125,70.859375 67.03125,75.810546875 60,80 52.96875,75.810546875 46.875,70.859375 41.71875,65.322265625 37.5,59.375 34.21875,53.193359375 31.875,46.953125 30.46875,40.830078125 30,35 30.46875,29.638671875 31.875,24.921875 34.21875,21.025390625 37.5,18.125 41.71875,16.396484375 46.875,16.015625 52.96875,17.158203125 56.3671875,18.355712890625 60,20" fill="none" stroke="#3366cc" stroke-width="1" />
    </g>
    <text x="60" y="115" font-family="sans-serif" font-size="10" fill="#333" text-anchor="middle">Contours</text>
  </g>
  <!-- Triangles -->
  <g transform="translate(260,0)">
    <g transform="translate(0,0)">
      <polygon points="46.875,16.015625 41.71875,16.396484375 46.875,16.015625" fill="#f08080" stroke="#990000" stroke-width="1" />
      <polygon points="46.875,16.015625 41.71875,16.396484375 48.90625,16.396484375" fill="#f08080" stroke="#990000" stroke-width="1" />
      <polygon points="73.125,16.015625 71.09375,16.396484375 73.125,16.015625" fill="#f08080" stroke="#990000" stroke-width="1" />
      <polygon points="73.125,16.015625 71.09375,16.396484375 78.28125,16.396484375" fill="#f08080" stroke="#990000" stroke-width="1" />
      <polygon points="41.71875,16.396484375 39.85963983050848,17.158203125 48.90625,16.396484375" fill="#f08080" stroke="#990000" stroke-width="1" />
      <polygon points="48.90625,16.396484375 39.85963983050848,17.158203125 52.96875,17.158203125" fill="#f08080" stroke="#990000" stroke-width="1" />
      <polygon points="71.09375,16.396484375 67.03125,17.158203125 78.28125,16.396484375" fill="#f08080" stroke="#990000" stroke-width="1" />
      <polygon points="78.28125,16.396484375 67.03125,17.158203125 80.14036016949153,17.158203125" fill="#f08080" stroke="#990000" stroke-width="1" />
      <polygon points="39.85963983050848,17.158203125 37.5,18.125 52.96875,17.158203125" fill="#f08080" stroke="#990000" stroke-width="1" />
      <polygon points="52.96875,17.158203125 37.5,18.125 55.71244266055046,18.125" fill="#f08080" stroke="#990000" stroke-width="1" />
      <polygon points="67.03125,17.158203125 64.28755733944953,18.125 80.14036016949153,17.158203125" fill="#f08080" stroke="#990000" stroke-width="1" />
      <polygon points="80.14036016949153,17.158203125 64.28755733944953,18.125 82.5,18.125" fill="#f08080" stroke="#990000" stroke-width="1" />
      <polygon points="37.5,18.125 37.23899147727273,18.355712890625 55.71244266055046,18.125" fill="#f08080" stroke="#990000" stroke-width="1" />
      <polygon points="55.71244266055046,18.125 37.23899147727273,18.355712890625 56.3671875,18.355712890625" fill="#f08080" stroke="#990000" stroke-width="1" />
      <polygon points="64.28755733944953,18.125 63.6328125,18.355712890625 82.5,18.125" fill="#f08080" stroke="#990000" stroke-width="1" />
      <polygon points="82.5,18.125 63.6328125,18.355712890625 82.76100852272727,18.355712890625" fill="#f08080" stroke="#990000" stroke-width="1" />
      <polygon points="37.23899147727273,18.355712890625 35.378787878787875,20 56.3671875,18.355712890625" fill="#f08080" stroke="#990000" stroke-width="1" />
      <polygon points="56.3671875,18.355712890625 35.378787878787875,20 60,20" fill="#f08080" stroke="#990000" stroke-width="1" />
      <polygon points="63.6328125,18.355712890625 60,20 82.76100852272727,18.355712890625" fill="#f08080" stroke="#990000" stroke-width="1" />
      <polygon points="82.76100852272727,18.355712890625 60,20 84.62121212121212,20" fill="#f08080" stroke="#990000" stroke-width="1" />
      <polygon points="35.378787878787875,20 34.21875,21.025390625 84.62121212121212,20" fill="#f08080" stroke="#990000" stroke-width="1" />
      <polygon points="84.62121212121212,20 34.21875,21.025390625 85.78125,21.025390625" fill="#f08080" stroke="#990000" stroke-width="1" />
      <polygon points="34.21875,21.025390625 31.875,24.921875 85.78125,21.025390625" fill="#f08080" stroke="#990000" stroke-width="1" />
      <polygon points="85.78125,21.025390625 31.875,24.921875 88.125,24.921875" fill="#f08080" stroke="#990000" stroke-width="1" />
      <polygon points="31.875,24.921875 30.46875,29.638671875 88.125,24.921875" fill="#f08080" stroke="#990000" stroke-width="1" />
      <polygon points="88.125,24.921875 30.46875,29.638671875 89.53125,29.638671875" fill="#f08080" stroke="#990000" stroke-width="1" />
      <polygon points="30.46875,29.638671875 30,35 89.53125,29.638671875" fill="#f08080" stroke="#990000" stroke-width="1" />
      <polygon points="89.53125,29.638671875 30,35 90,35" fill="#f08080" stroke="#990000" stroke-width="1" />
      <polygon points="30,35 30.46875,40.830078125 90,35" fill="#f08080" stroke="#990000" stroke-width="1" />
      <polygon points="90,35 30.46875,40.830078125 89.53125,40.830078125" fill="#f08080" stroke="#990000" stroke-width="1" />
      <polygon points="30.46875,40.830078125 31.875,46.953125 89.53125,40.830078125" fill="#f08080" stroke="#990000" stroke-width="1" />
      <polygon points="89.53125,40.830078125 31.875,46.953125 88.125,46.953125" fill="#f08080" stroke="#990000" stroke-width="1" />
      <polygon points="31.875,46.953125 34.21875,53.193359375 88.125,46.953125" fill="#f08080" stroke="#990000" stroke-width="1" />
      <polygon points="88.125,46.953125 34.21875,53.193359375 85.78125,53.193359375" fill="#f08080" stroke="#990000" stroke-width="1" />
      <polygon points="34.21875,53.193359375 37.5,59.375 85.78125,53.193359375" fill="#f08080" stroke="#990000" stroke-width="1" />
      <polygon points="85.78125,53.193359375 37.5,59.375 82.5,59.375" fill="#f08080" stroke="#990000" stroke-width="1" />
      <polygon points="37.5,59.375 41.71875,65.322265625 82.5,59.375" fill="#f08080" stroke="#990000" stroke-width="1" />
      <polygon points="82.5,59.375 41.71875,65.322265625 78.28125,65.322265625" fill="#f08080" stroke="#990000" stroke-width="1" />
      <polygon points="41.71875,65.322265625 46.875,70.859375 78.28125,65.322265625" fill="#f08080" stroke="#990000" stroke-width="1" />
      <polygon points="78.28125,65.322265625 46.875,70.859375 73.125,70.859375" fill="#f08080" stroke="#990000" stroke-width="1" />
      <polygon points="46.875,70.859375 52.96875,75.810546875 73.125,70.859375" fill="#f08080" stroke="#990000" stroke-width="1" />
      <polygon points="73.125,70.859375 52.96875,75.810546875 67.03125,75.810546875" fill="#f08080" stroke="#990000" stroke-width="1" />
      <polygon points="52.96875,75.810546875 60,80 67.03125,75.810546875" fill="#f08080" stroke="#990000" stroke-width="1" />
      <polygon points="67.03125,75.810546875 60,80 60,80" fill="#f08080" stroke="#990000" stroke-width="1" />
    </g>
    <text x="60" y="115" font-family="sans-serif" font-size="10" fill="#333" text-anchor="middle">Triangles</text>
  </g>
</svg>
