<?xml version="1.0" encoding="UTF-8"?>
<svg xmlns="http://www.w3.org/2000/svg" width="380" height="120" viewBox="0 0 380 120">
  <!-- Path2D -->
  <g transform="translate(0,0)">
    <g transform="translate(0,0)">
      <path d="M 60 20 C 100 20 100 80 60 80 C 20 80 20 20 60 20 Z M 60 35 C 75 35 75 65 60 65 C 45 65 45 35 60 35 Z " fill="none" stroke="#444" stroke-width="1.5" />
    </g>
    <text x="60" y="115" font-family="sans-serif" font-size="10" fill="#333" text-anchor="middle">Path2D</text>
  </g>
  <!-- Contours -->
  <g transform="translate(130,0)">
    <g transform="translate(0,0)">
      <polyline points="60,20 73.125,22.578125 82.5,29.375 88.125,38.984375 90,50 88.125,61.015625 82.5,70.625 73.125,77.421875 60,80 46.875,77.421875 37.5,70.625 31.875,61.015625 30,50 31.875,38.984375 37.5,29.375 46.875,22.578125 60,20" fill="none" stroke="#3366cc" stroke-width="1" />
      <polyline points="60,35 64.921875,36.2890625 68.4375,39.6875 71.25,50 68.4375,60.3125 64.921875,63.7109375 60,65 55.078125,63.7109375 51.5625,60.3125 48.75,50 51.5625,39.6875 55.078125,36.2890625 60,35" fill="none" stroke="#3366cc" stroke-width="1" />
    </g>
    <text x="60" y="115" font-family="sans-serif" font-size="10" fill="#333" text-anchor="middle">Contours</text>
  </g>
  <!-- Triangles -->
  <g transform="translate(260,0)">
    <g transform="translate(0,0)">
      <polygon points="60,20 73.125,22.578125 60,20" fill="#f08080" stroke="#990000" stroke-width="1" />
      <polygon points="60,20 73.125,22.578125 46.875,22.578125" fill="#f08080" stroke="#990000" stroke-width="1" />
      <polygon points="46.875,22.578125 37.5,29.375 73.125,22.578125" fill="#f08080" stroke="#990000" stroke-width="1" />
      <polygon points="73.125,22.578125 37.5,29.375 82.5,29.375" fill="#f08080" stroke="#990000" stroke-width="1" />
      <polygon points="37.5,29.375 34.207317073170735,35 82.5,29.375" fill="#f08080" stroke="#990000" stroke-width="1" />
      <polygon points="82.5,29.375 34.207317073170735,35 85.79268292682927,35" fill="#f08080" stroke="#990000" stroke-width="1" />
      <polygon points="34.207317073170735,35 33.452743902439025,36.2890625 60,35" fill="#f08080" stroke="#990000" stroke-width="1" />
      <polygon points="60,35 33.452743902439025,36.2890625 64.921875,36.2890625" fill="#f08080" stroke="#990000" stroke-width="1" />
      <polygon points="60,35 55.078125,36.2890625 85.79268292682927,35" fill="#f08080" stroke="#990000" stroke-width="1" />
      <polygon points="85.79268292682927,35 55.078125,36.2890625 86.54725609756098,36.2890625" fill="#f08080" stroke="#990000" stroke-width="1" />
      <polygon points="33.452743902439025,36.2890625 31.875,38.984375 55.078125,36.2890625" fill="#f08080" stroke="#990000" stroke-width="1" />
      <polygon points="55.078125,36.2890625 31.875,38.984375 52.289870689655174,38.984375" fill="#f08080" stroke="#990000" stroke-width="1" />
      <polygon points="64.921875,36.2890625 67.71012931034483,38.984375 86.54725609756098,36.2890625" fill="#f08080" stroke="#990000" stroke-width="1" />
      <polygon points="86.54725609756098,36.2890625 67.71012931034483,38.984375 88.125,38.984375" fill="#f08080" stroke="#990000" stroke-width="1" />
      <polygon points="31.875,38.984375 31.75531914893617,39.6875 52.289870689655174,38.984375" fill="#f08080" stroke="#990000" stroke-width="1" />
      <polygon points="52.289870689655174,38.984375 31.75531914893617,39.6875 51.5625,39.6875" fill="#f08080" stroke="#990000" stroke-width="1" />
      <polygon points="67.71012931034483,38.984375 68.4375,39.6875 88.125,38.984375" fill="#f08080" stroke="#990000" stroke-width="1" />
      <polygon points="88.125,38.984375 68.4375,39.6875 88.24468085106383,39.6875" fill="#f08080" stroke="#990000" stroke-width="1" />
      <polygon points="31.75531914893617,39.6875 30,50 51.5625,39.6875" fill="#f08080" stroke="#990000" stroke-width="1" />
      <polygon points="51.5625,39.6875 30,50 48.75,50" fill="#f08080" stroke="#990000" stroke-width="1" />
      <polygon points="68.4375,39.6875 71.25,50 88.24468085106383,39.6875" fill="#f08080" stroke="#990000" stroke-width="1" />
      <polygon points="88.24468085106383,39.6875 71.25,50 90,50" fill="#f08080" stroke="#990000" stroke-width="1" />
      <polygon points="30,50 31.75531914893617,60.3125 48.75,50" fill="#f08080" stroke="#990000" stroke-width="1" />
      <polygon points="48.75,50 31.75531914893617,60.3125 51.5625,60.3125" fill="#f08080" stroke="#990000" stroke-width="1" />
      <polygon points="71.25,50 68.4375,60.3125 90,50" fill="#f08080" stroke="#990000" stroke-width="1" />
      <polygon points="90,50 68.4375,60.3125 88.24468085106383,60.3125" fill="#f08080" stroke="#990000" stroke-width="1" />
      <polygon points="31.75531914893617,60.3125 31.875,61.015625 51.5625,60.3125" fill="#f08080" stroke="#990000" stroke-width="1" />
      <polygon points="51.5625,60.3125 31.875,61.015625 52.289870689655174,61.015625" fill="#f08080" stroke="#990000" stroke-width="1" />
      <polygon points="68.4375,60.3125 67.71012931034483,61.015625 88.24468085106383,60.3125" fill="#f08080" stroke="#990000" stroke-width="1" />
      <polygon points="88.24468085106383,60.3125 67.71012931034483,61.015625 88.125,61.015625" fill="#f08080" stroke="#990000" stroke-width="1" />
      <polygon points="31.875,61.015625 33.452743902439025,63.7109375 52.289870689655174,61.015625" fill="#f08080" stroke="#990000" stroke-width="1" />
      <polygon points="52.289870689655174,61.015625 33.452743902439025,63.7109375 55.078125,63.7109375" fill="#f08080" stroke="#990000" stroke-width="1" />
      <polygon points="67.71012931034483,61.015625 64.921875,63.7109375 88.125,61.015625" fill="#f08080" stroke="#990000" stroke-width="1" />
      <polygon points="88.125,61.015625 64.921875,63.7109375 86.54725609756098,63.7109375" fill="#f08080" stroke="#990000" stroke-width="1" />
      <polygon points="33.452743902439025,63.7109375 34.20731707317073,65 55.078125,63.7109375" fill="#f08080" stroke="#990000" stroke-width="1" />
      <polygon points="55.078125,63.7109375 34.20731707317073,65 60,65" fill="#f08080" stroke="#990000" stroke-width="1" />
      <polygon points="64.921875,63.7109375 60,65 86.54725609756098,63.7109375" fill="#f08080" stroke="#990000" stroke-width="1" />
      <polygon points="86.54725609756098,63.7109375 60,65 85.79268292682927,65" fill="#f08080" stroke="#990000" stroke-width="1" />
      <polygon points="34.20731707317073,65 37.5,70.625 85.79268292682927,65" fill="#f08080" stroke="#990000" stroke-width="1" />
      <polygon points="85.79268292682927,65 37.5,70.625 82.5,70.625" fill="#f08080" stroke="#990000" stroke-width="1" />
      <polygon points="37.5,70.625 46.875,77.421875 82.5,70.625" fill="#f08080" stroke="#990000" stroke-width="1" />
      <polygon points="82.5,70.625 46.875,77.421875 73.125,77.421875" fill="#f08080" stroke="#990000" stroke-width="1" />
      <polygon points="46.875,77.421875 60,80 73.125,77.421875" fill="#f08080" stroke="#990000" stroke-width="1" />
      <polygon points="73.125,77.421875 60,80 60,80" fill="#f08080" stroke="#990000" stroke-width="1" />
    </g>
    <text x="60" y="115" font-family="sans-serif" font-size="10" fill="#333" text-anchor="middle">Triangles</text>
  </g>
</svg>
