<?xml version="1.0" encoding="UTF-8"?>
<svg xmlns="http://www.w3.org/2000/svg" width="380" height="120" viewBox="0 0 380 120">
  <!-- Path2D -->
  <g transform="translate(0,0)">
    <g transform="translate(0,0)">
      <path d="M 60 20 C 100 0 100 60 60 80 C 20 60 20 0 60 20 Z " fill="none" stroke="#444" stroke-width="1.5" />
    </g>
    <text x="60" y="115" font-family="sans-serif" font-size="10" fill="#333" text-anchor="middle">Path2D</text>
  </g>
  <!-- Contours -->
  <g transform="translate(130,0)">
    <g transform="translate(0,0)">
      <polyline points="60,20 73.125,16.015625 82.5,18.125 88.125,24.921875 90,35 88.125,46.953125 82.5,59.375 73.125,70.859375 60,80 46.875,70.859375 37.5,59.375 31.875,46.953125 30,35 31.875,24.921875 37.5,18.125 46.875,16.015625 60,20" fill="none" stroke="#3366cc" stroke-width="1" />
    </g>
    <text x="60" y="115" font-family="sans-serif" font-size="10" fill="#333" text-anchor="middle">Contours</text>
  </g>
  <!-- Triangles -->
  <g transform="translate(260,0)">
    <g transform="translate(0,0)">
      <polygon points="46.875,16.015625 37.5,18.125 46.875,16.015625" fill="#f08080" stroke="#990000" stroke-width="1" />
      <polygon points="46.875,16.015625 37.5,18.125 53.8235294117647,18.125" fill="#f08080" stroke="#990000" stroke-width="1" />
      <polygon points="73.125,16.015625 66.17647058823529,18.125 73.125,16.015625" fill="#f08080" stroke="#990000" stroke-width="1" />
      <polygon points="73.125,16.015625 66.17647058823529,18.125 82.5,18.125" fill="#f08080" stroke="#990000" stroke-width="1" />
      <polygon points="37.5,18.125 35.94827586206897,20 53.8235294117647,18.125" fill="#f08080" stroke="#990000" stroke-width="1" />
      <polygon points="53.8235294117647,18.125 35.94827586206897,20 60,20" fill="#f08080" stroke="#990000" stroke-width="1" />
      <polygon points="66.17647058823529,18.125 60,20 82.5,18.125" fill="#f08080" stroke="#990000" stroke-width="1" />
      <polygon points="82.5,18.125 60,20 84.05172413793103,20" fill="#f08080" stroke="#990000" stroke-width="1" />
      <polygon points="35.94827586206897,20 31.875,24.921875 84.05172413793103,20" fill="#f08080" stroke="#990000" stroke-width="1" />
      <polygon points="84.05172413793103,20 31.875,24.921875 88.125,24.921875" fill="#f08080" stroke="#990000" stroke-width="1" />
      <polygon points="31.875,24.921875 30,35 88.125,24.921875" fill="#f08080" stroke="#990000" stroke-width="1" />
      <polygon points="88.125,24.921875 30,35 90,35" fill="#f08080" stroke="#990000" stroke-width="1" />
      <polygon points="30,35 31.875,46.953125 90,35" fill="#f08080" stroke="#990000" stroke-width="1" />
      <polygon points="90,35 31.875,46.953125 88.125,46.953125" fill="#f08080" stroke="#990000" stroke-width="1" />
      <polygon points="31.875,46.953125 37.5,59.375 88.125,46.953125" fill="#f08080" stroke="#990000" stroke-width="1" />
      <polygon points="88.125,46.953125 37.5,59.375 82.5,59.375" fill="#f08080" stroke="#990000" stroke-width="1" />
      <polygon points="37.5,59.375 46.875,70.859375 82.5,59.375" fill="#f08080" stroke="#990000" stroke-width="1" />
      <polygon points="82.5,59.375 46.875,70.859375 73.125,70.859375" fill="#f08080" stroke="#990000" stroke-width="1" />
      <polygon points="46.875,70.859375 60,80 73.125,70.859375" fill="#f08080" stroke="#990000" stroke-width="1" />
      <polygon points="73.125,70.859375 60,80 60,80" fill="#f08080" stroke="#990000" stroke-width="1" />
    </g>
    <text x="60" y="115" font-family="sans-serif" font-size="10" fill="#333" text-anchor="middle">Triangles</text>
  </g>
</svg>
