<?xml version="1.0" encoding="UTF-8"?>
<svg xmlns="http://www.w3.org/2000/svg" width="1600" height="240" viewBox="0 0 1600 240">
  <g transform="translate(0, 192)">
    <path d="M 14.0625 0 L 14.0625 -116.40625 L 28.90625 -116.40625 L 28.90625 -66.09375 L 90 -66.09375 L 90 -116.40625 L 104.84375 -116.40625 L 104.84375 0 L 90 0 L 90 -52.96875 L 28.90625 -52.96875 L 28.90625 0 Z M 167.96875 1.875 Q 155.3125 1.875 146.1328125 -3.75 Q 136.953125 -9.375 131.9921875 -19.453125 Q 127.03125 -29.53125 127.03125 -42.96875 Q 127.03125 -56.40625 131.875 -66.640625 Q 136.71875 -76.875 145.5859375 -82.65625 Q 154.453125 -88.4375 166.328125 -88.4375 Q 173.28125 -88.4375 180.0390625 -86.1328125 Q 186.796875 -83.828125 192.3046875 -78.7109375 Q 197.8125 -73.59375 201.09375 -65.234375 Q 204.375 -56.875 204.375 -44.765625 L 204.375 -38.90625 L 141.25 -38.90625 Q 141.796875 -25.234375 149.1015625 -17.9296875 Q 156.40625 -10.625 168.046875 -10.625 Q 175.78125 -10.625 181.3671875 -14.0234375 Q 186.953125 -17.421875 189.375 -24.0625 L 202.96875 -20.3125 Q 199.921875 -10.390625 190.6640625 -4.2578125 Q 181.40625 1.875 167.96875 1.875 Z M 141.328125 -50.78125 L 190.078125 -50.78125 Q 189.0625 -61.953125 183.0859375 -68.9453125 Q 177.109375 -75.9375 166.328125 -75.9375 Q 158.828125 -75.9375 153.3984375 -72.421875 Q 147.96875 -68.90625 144.84375 -63.203125 Q 141.71875 -57.5 141.328125 -50.78125 Z M 238.59375 -116.40625 L 238.59375 0 L 224.53125 0 L 224.53125 -116.40625 Z M 277.34375 -116.40625 L 277.34375 0 L 263.28125 0 L 263.28125 -116.40625 Z M 337.578125 1.875 Q 325.703125 1.875 316.7578125 -3.75 Q 307.8125 -9.375 302.8125 -19.53125 Q 297.8125 -29.6875 297.8125 -43.125 Q 297.8125 -56.796875 302.8125 -66.9921875 Q 307.8125 -77.1875 316.7578125 -82.8125 Q 325.703125 -88.4375 337.578125 -88.4375 Q 349.53125 -88.4375 358.515625 -82.8125 Q 367.5 -77.1875 372.5 -66.9921875 Q 377.5 -56.796875 377.5 -43.125 Q 377.5 -29.6875 372.5 -19.53125 Q 367.5 -9.375 358.515625 -3.75 Q 349.53125 1.875 337.578125 1.875 Z M 337.578125 -10.703125 Q 346.40625 -10.703125 352.109375 -15.234375 Q 357.8125 -19.765625 360.546875 -27.1484375 Q 363.28125 -34.53125 363.28125 -43.125 Q 363.28125 -51.796875 360.546875 -59.2578125 Q 357.8125 -66.71875 352.109375 -71.2890625 Q 346.40625 -75.859375 337.578125 -75.859375 Q 328.828125 -75.859375 323.203125 -71.2890625 Q 317.578125 -66.71875 314.84375 -59.296875 Q 312.109375 -51.875 312.109375 -43.125 Q 312.109375 -34.53125 314.84375 -27.1484375 Q 317.578125 -19.765625 323.203125 -15.234375 Q 328.828125 -10.703125 337.578125 -10.703125 Z M 466.40625 0 L 434.6875 -116.40625 L 449.84375 -116.40625 L 468.28125 -45 Q 470.15625 -37.5 471.875 -29.765625 Q 473.59375 -22.03125 475.15625 -13.828125 Q 476.71875 -22.03125 478.4375 -29.765625 Q 480.15625 -37.5 482.1875 -45 L 501.015625 -116.40625 L 517.890625 -116.40625 L 536.5625 -45 Q 540.46875 -30.390625 543.671875 -14.296875 Q 545.15625 -22.34375 546.9140625 -29.9609375 Q 548.671875 -37.578125 550.546875 -45 L 568.90625 -116.40625 L 584.21875 -116.40625 L 552.34375 0 L 535.078125 0 L 515.078125 -73.75 Q 513.59375 -79.296875 512.1484375 -85.625 Q 510.703125 -91.953125 509.375 -99.609375 Q 508.046875 -92.5 506.71875 -86.2890625 Q 505.390625 -80.078125 503.671875 -73.75 L 483.75 0 Z M 628.046875 1.875 Q 616.171875 1.875 607.2265625 -3.75 Q 598.28125 -9.375 593.28125 -19.53125 Q 588.28125 -29.6875 588.28125 -43.125 Q 588.28125 -56.796875 593.28125 -66.9921875 Q 598.28125 -77.1875 607.2265625 -82.8125 Q 616.171875 -88.4375 628.046875 -88.4375 Q 640 -88.4375 648.984375 -82.8125 Q 657.96875 -77.1875 662.96875 -66.9921875 Q 667.96875 -56.796875 667.96875 -43.125 Q 667.96875 -29.6875 662.96875 -19.53125 Q 657.96875 -9.375 648.984375 -3.75 Q 640 1.875 628.046875 1.875 Z M 628.046875 -10.703125 Q 636.875 -10.703125 642.578125 -15.234375 Q 648.28125 -19.765625 651.015625 -27.1484375 Q 653.75 -34.53125 653.75 -43.125 Q 653.75 -51.796875 651.015625 -59.2578125 Q 648.28125 -66.71875 642.578125 -71.2890625 Q 636.875 -75.859375 628.046875 -75.859375 Q 619.296875 -75.859375 613.671875 -71.2890625 Q 608.046875 -66.71875 605.3125 -59.296875 Q 602.578125 -51.875 602.578125 -43.125 Q 602.578125 -34.53125 605.3125 -27.1484375 Q 608.046875 -19.765625 613.671875 -15.234375 Q 619.296875 -10.703125 628.046875 -10.703125 Z M 688.4375 0 L 688.4375 -87.34375 L 702.03125 -87.34375 L 702.03125 -73.90625 L 702.96875 -73.90625 Q 705.390625 -80.546875 711.6015625 -84.5703125 Q 717.8125 -88.59375 725.625 -88.59375 Q 727.1875 -88.59375 729.3359375 -88.515625 Q 731.484375 -88.4375 732.734375 -88.359375 L 732.734375 -74.21875 Q 732.109375 -74.375 729.609375 -74.6875 Q 727.109375 -75 724.296875 -75 Q 714.84375 -75 708.671875 -69.2578125 Q 702.5 -63.515625 702.5 -54.6875 L 702.5 0 Z M 765.234375 -116.40625 L 765.234375 0 L 751.171875 0 L 751.171875 -116.40625 Z M 822.65625 1.875 Q 811.796875 1.875 803.4375 -3.671875 Q 795.078125 -9.21875 790.390625 -19.375 Q 785.703125 -29.53125 785.703125 -43.4375 Q 785.703125 -57.265625 790.4296875 -67.3828125 Q 795.15625 -77.5 803.515625 -82.96875 Q 811.875 -88.4375 822.734375 -88.4375 Q 831.25 -88.4375 836.25 -85.625 Q 841.25 -82.8125 843.9453125 -79.2578125 Q 846.640625 -75.703125 848.046875 -73.359375 L 849.140625 -73.359375 L 849.140625 -116.40625 L 863.203125 -116.40625 L 863.203125 0 L 849.609375 0 L 849.609375 -13.515625 L 848.046875 -13.515625 Q 846.640625 -11.09375 843.8671875 -7.4609375 Q 841.09375 -3.828125 836.0546875 -0.9765625 Q 831.015625 1.875 822.65625 1.875 Z M 824.765625 -10.703125 Q 836.640625 -10.703125 842.96875 -19.84375 Q 849.296875 -28.984375 849.296875 -43.59375 Q 849.296875 -58.046875 843.0859375 -66.953125 Q 836.875 -75.859375 824.765625 -75.859375 Q 816.484375 -75.859375 810.9765625 -71.5625 Q 805.46875 -67.265625 802.734375 -59.9609375 Q 800 -52.65625 800 -43.59375 Q 800 -34.453125 802.7734375 -26.9921875 Q 805.546875 -19.53125 811.09375 -15.1171875 Q 816.640625 -10.703125 824.765625 -10.703125 Z M 891.484375 -37.421875 L 890.546875 -116.40625 L 906.484375 -116.40625 L 905.46875 -37.421875 Z M 898.59375 1.015625 Q 894.21875 1.015625 891.1328125 -2.0703125 Q 888.046875 -5.15625 888.046875 -9.453125 Q 888.046875 -13.828125 891.1328125 -16.9140625 Q 894.21875 -20 898.59375 -20 Q 902.96875 -20 906.015625 -16.9140625 Q 909.0625 -13.828125 909.0625 -9.453125 Q 909.0625 -5.15625 906.015625 -2.0703125 Q 902.96875 1.015625 898.59375 1.015625 Z " fill="none" stroke="black" stroke-width="2" />
  </g>
</svg>
