<svg xmlns="http://www.w3.org/2000/svg" width="120" height="120" viewBox="0 0 120 120">
  <style>
    @font-face { font-family: 'Inter'; src: url('https://xuiapps.com/fonts/Inter-Regular.ttf'); }
  </style>
  <path d="M 8 6 H 86.08251953125 A 2 2 0 0 1 88.08251953125 8 V 22 A 2 2 0 0 1 86.08251953125 24 H 8 A 2 2 0 0 1 6 22 V 8 A 2 2 0 0 1 8 6 Z " fill="#FFFFFF" fill-rule="nonzero" />
  <path d="M 8 5.5 H 86.08251953125 A 2.5 2.5 0 0 1 88.58251953125 8 V 22 A 2.5 2.5 0 0 1 86.08251953125 24.5 H 8 A 2.5 2.5 0 0 1 5.5 22 V 8 A 2.5 2.5 0 0 1 8 5.5 Z " fill="none" stroke="#FF0000" />
  <text x="6" y="6" fill="#000000" text-anchor="start" dominant-baseline="text-before-edge" font-size="15" font-family="Inter">Hello World</text>
  <path d="M 8 36 H 26.734375 A 2 2 0 0 1 28.734375 38 V 52 A 2 2 0 0 1 26.734375 54 H 8 A 2 2 0 0 1 6 52 V 38 A 2 2 0 0 1 8 36 Z " fill="#FFFFFF" fill-rule="nonzero" />
  <path d="M 8 35.5 H 26.734375 A 2.5 2.5 0 0 1 29.234375 38 V 52 A 2.5 2.5 0 0 1 26.734375 54.5 H 8 A 2.5 2.5 0 0 1 5.5 52 V 38 A 2.5 2.5 0 0 1 8 35.5 Z " fill="none" stroke="#FF0000" />
  <text x="6" y="36" fill="#000000" text-anchor="start" dominant-baseline="text-before-edge" font-size="15" font-family="Inter">Xui</text>
  <path d="M 8 66 H 13.79248046875 A 2 2 0 0 1 15.79248046875 68 V 82 A 2 2 0 0 1 13.79248046875 84 H 8 A 2 2 0 0 1 6 82 V 68 A 2 2 0 0 1 8 66 Z " fill="#FFFFFF" fill-rule="nonzero" />
  <path d="M 8 65.5 H 13.79248046875 A 2.5 2.5 0 0 1 16.29248046875 68 V 82 A 2.5 2.5 0 0 1 13.79248046875 84.5 H 8 A 2.5 2.5 0 0 1 5.5 82 V 68 A 2.5 2.5 0 0 1 8 65.5 Z " fill="none" stroke="#FF0000" />
  <text x="6" y="66" fill="#000000" text-anchor="start" dominant-baseline="text-before-edge" font-size="15" font-family="Inter">:)</text>
</svg>
