<svg xmlns="http://www.w3.org/2000/svg" width="64" height="64" viewBox="0 0 64 64">
  <defs>
    <clipPath id="clip0">
      <path d="M 0 32 C 0 4.159999847412109, 4.159999847412109 0, 32 0 C 59.84000015258789 0, 64 4.159999847412109, 64 32 C 64 59.84000015258789, 59.84000015258789 64, 32 64 C 4.159999847412109 64, 0 59.84000015258789, 0 32 Z " clip-rule="nonzero" />
    </clipPath>
    <linearGradient id="grad1" x1="10" y1="5" x2="54" y2="59" gradientUnits="userSpaceOnUse">
      <stop offset="0%" stop-color="#D642CD" />
      <stop offset="100%" stop-color="#8A05FF" />
    </linearGradient>
    <linearGradient id="grad2" x1="0" y1="20" x2="64" y2="44" gradientUnits="userSpaceOnUse">
      <stop offset="0%" stop-color="#E8BEED" />
      <stop offset="100%" stop-color="#E4CFE5" />
    </linearGradient>
  </defs>
  <g clip-path="url(#clip0)">
    <path d="M 0 0 L 64 0 L 64 64 L 0 64 Z " fill="url(#grad1)" fill-rule="nonzero" />
    <path d="M 5 0 L 15 22 L 25 0 Z " fill="url(#grad2)" fill-rule="nonzero" />
    <path d="M 5 64 L 15 42 L 25 64 Z " fill="url(#grad2)" fill-rule="nonzero" />
    <path d="M 0 10 L 10 32 L 0 54 Z " fill="url(#grad2)" fill-rule="nonzero" />
    <path d="M 25 24 L 25 35 Q 25 45.5, 32 45.5 Q 39 45.5, 39 35 L 39 24 " fill="none" stroke="#FFFFFF" stroke-width="5" />
    <path d="M 49 24 L 49 47 " fill="none" stroke="#FFFFFF" stroke-width="5" />
    <path d="M 52 18 A 3 3 0 0 1 46 18 A 3 3 0 0 1 52 18 " fill="#FFFFFF" fill-rule="nonzero" />
  </g>
</svg>
